<svg viewBox="0 0 700 700" xmlns="http://www.w3.org/2000/svg">
    <path fill="#533feb" d="M313 2.5c-93.9 11-176 55.6-234.1 127-43.6 53.7-69.8 117.7-77 188C.4 333 .4 368.2 1.9 383c11 104.2 62.8 193.2 147.3 253.2 71.3 50.5 163.5 72.5 250.9 59.8 89.9-13.1 173.3-62 227.5-133.5 67.8-89.4 89-203.3 57.7-311-24.7-85.2-84.2-160.7-161-204.4-40.1-22.8-81.8-36.9-128.9-43.7-15.2-2.2-66.8-2.8-82.4-.9zm80 54.4c59.1 9.1 113.3 34.8 156.5 74.4C589 167.4 617 211.6 633.1 263c4.2 13.4 9.3 36.5 10.4 47l.7 6.5-55.3-55.1c-52.8-52.5-55.7-55.3-61.4-57.4-6.8-2.5-13.8-2.3-20.2.6-2.6 1.1-32.1 30-90.5 88.3L330 379.5l-39.2-39.2c-43.2-43.1-43.6-43.4-55.2-43.5-11.8-.2-8.9-2.7-90.3 78.5-40.8 40.8-74.4 73.9-74.6 73.7-1.6-1.8-8.7-28-11.6-42.5-4.8-24-6.5-59.9-4.1-84.6 5.9-58.5 28.4-113.2 65.3-158.9 11.6-14.3 35.6-37.6 50.2-48.5 44.6-33.6 94.4-53.2 150.5-59.4 14.6-1.6 56.5-.6 72 1.8z"/>
</svg>
