<svg xmlns="http://www.w3.org/2000/svg" xml:space="preserve" y="0" x="0" id="Layer_1" version="1.1" viewBox="0 0 248.3 226.9">
  <style id="style2" type="text/css">
    .st1{fill:#fabc04}
  </style>
  <path d="M84.5 28.6a41.5 41.5 0 0175.9-7.1c10 18.2 20.6 36 30.9 54 17.2 29.9 34.6 59.8 51.6 89.8a41.3 41.3 0 11-72.3 40l-45.4-78.7a9 9 0 00-1.1-1.6c-1.6-1.3-2.3-3.2-3.3-5L100.5 85 87.4 62.2a41.4 41.4 0 01-5.5-22c.3-4 .8-8 2.6-11.6" id="path4" fill="#3c8bd9"/>
  <path class="st1" d="M84.5 28.6A43.2 43.2 0 0088.6 63l32.9 56.9 2.8 5-18.1 31-25.3 43.7c-.4 0-.5-.2-.6-.5-.1-.8.2-1.5.4-2.3 4.1-15 .7-28.3-9.6-39.7A38.1 38.1 0 0047.6 145a40.6 40.6 0 00-32.1 8.9c-1.7 1.3-2.8 3.2-4.8 4.2-.4 0-.6-.2-.7-.5l14.3-25 59.5-103 .7-1.1" id="path6" fill="#fabc04"/>
  <path d="M10.4 158c1.9-1.7 3.7-3.5 5.7-5.1a41.3 41.3 0 0164.5 46.4l-.4 1.7c-.9 1.6-1.7 3.3-2.7 4.9-8.9 14.7-22 22-39.2 20.9a41 41 0 01-32.4-62.4c1-1.8 2.2-3.4 3.3-5.2.5-.4.3-1.2 1.2-1.2" id="path8" fill="#34a852"/>
  <path class="st1" d="M10.4 158c-.4.4-.4 1-1.1 1.2-.1-.7.3-1.1.7-1.6l.4.4" id="path10" fill="#fabc04"/>
  <path d="M80.2 201c-.4-.7 0-1.2.4-1.7l.4.4-.8 1.3" id="path12" fill="#e1c025"/>
</svg>
