<?xml version="1.0" encoding="UTF-8"?>
<svg width="418px" height="86px" viewBox="0 0 418 86" version="1.1" xmlns="http://www.w3.org/2000/svg" xmlns:xlink="http://www.w3.org/1999/xlink">
    <!-- Generator: Sketch 41.2 (35397) - http://www.bohemiancoding.com/sketch -->
    <title>pingdom-dark</title>
    <desc>Created with Sketch.</desc>
    <defs></defs>
    <g id="Brand-Assets" stroke="none" stroke-width="1" fill="none" fill-rule="evenodd">
        <g id="pingdom-dark" fill="#282828">
            <g id="Group">
                <path d="M39.2886957,39.0969231 L39.9991304,38.8984615 C45.291538,37.311768 50.4833197,35.406372 55.546087,33.1926923 C60.6816082,31.1764304 65.5003312,28.4304317 69.853913,25.0392308 C74.4758258,21.3591675 77.9545347,16.437004 79.8826087,10.8492308 C80.298389,9.92944709 80.6034292,8.96343407 80.7913043,7.97153846 C73.8356522,17.4811538 46.2608696,18.4734615 46.2608696,18.4734615 L52.7704348,12.5030769 C33.8261182,12.568387 15.375875,18.5589313 0,29.6369231 C10.4141134,30.7536717 20.2095471,35.1354004 27.9878261,42.1565385 C31.7217391,40.9988462 35.5382609,40.1719231 39.2886957,39.13 L39.2886957,39.0969231 Z M82.526087,38.1542308 C64.9813117,37.3405184 47.4284684,39.5788125 30.6478261,44.7696154 C34.1727268,48.4514507 37.1145431,52.6511282 39.3713043,57.2230769 C53.266087,49.4830769 72.5304348,39.5930769 82.526087,38.1873077 L82.526087,38.1542308 Z M41.1226087,61.1757692 C42.7706677,65.4208989 43.8269636,69.8729623 44.2617391,74.4065385 L68.4991304,49.4830769 L41.1226087,61.1757692 L41.1226087,61.1757692 Z M53.8443478,73.3976923 L53.8443478,73.1330769 C53.840194,73.0264403 53.8058116,72.9231887 53.7452174,72.8353846 C53.6899282,72.7525512 53.5969119,72.7028923 53.4973913,72.7030769 L53.7121739,72.7030769 C53.8439097,72.615332 53.9193513,72.4642961 53.9104348,72.3061538 C53.9333479,72.0927957 53.8118929,71.8901659 53.6130435,71.81 C53.4438717,71.7774024 53.2700413,71.7774024 53.1008696,71.81 L52.4234783,71.81 L52.4234783,73.6788462 L52.7869565,73.6788462 L52.7869565,73.0007692 L53.0513043,73.0007692 C53.1652614,72.9727376 53.2843038,72.9727376 53.3982609,73.0007692 C53.5113026,73.0924927 53.5677886,73.2369919 53.5469565,73.3811538 L53.5469565,73.6623077 L53.9104348,73.6623077 L53.8443478,73.3976923 L53.8443478,73.3976923 Z M52.7704348,71.9423077 L53.0017391,71.9423077 C53.1267534,71.9133437 53.2567249,71.9133437 53.3817391,71.9423077 C53.4543824,71.9957029 53.492342,72.0843649 53.4808696,72.1738462 C53.4950497,72.2900208 53.426187,72.4003126 53.3156522,72.4384615 C53.2171474,72.4542284 53.1167656,72.4542284 53.0182609,72.4384615 L52.7704348,72.4384615 L52.7704348,71.81 L52.7704348,71.9423077 L52.7704348,71.9423077 Z" id="Shape"></path>
                <path d="M54.2904348,71.3965385 C53.9780554,71.0625437 53.5414123,70.8730087 53.0843478,70.8730087 C52.6272834,70.8730087 52.1906403,71.0625437 51.8782609,71.3965385 C51.5546726,71.7139294 51.3754798,72.1504065 51.3826087,72.6038462 C51.3754798,73.0572858 51.5546726,73.4937629 51.8782609,73.8111538 C52.1906403,74.1451486 52.6272834,74.3346836 53.0843478,74.3346836 C53.5414123,74.3346836 53.9780554,74.1451486 54.2904348,73.8111538 C54.6240918,73.4984583 54.8134352,73.0613732 54.8134352,72.6038462 C54.8134352,72.1463191 54.6240918,71.709234 54.2904348,71.3965385 M53.0843478,74.0096154 C52.7111229,74.0143744 52.3524711,73.8647849 52.0930435,73.5961538 C51.5557937,73.0439144 51.5557937,72.1637779 52.0930435,71.6115385 C52.3540782,71.3448513 52.7113634,71.1945667 53.0843478,71.1945667 C53.4573323,71.1945667 53.8146174,71.3448513 54.0756522,71.6115385 C54.612902,72.1637779 54.612902,73.0439144 54.0756522,73.5961538 C53.8162246,73.8647849 53.4575728,74.0143744 53.0843478,74.0096154" id="Shape"></path>
                <path d="M229.751304,50.3265385 C225.784724,50.3265385 222.119453,48.2082515 220.136163,44.7696155 C218.152873,41.3309795 218.152873,37.0944052 220.136163,33.6557692 C222.119453,30.2171332 225.784724,28.0988461 229.751304,28.0988462 C235.883106,28.0988462 240.853913,33.0746846 240.853913,39.2126923 C240.853913,45.3507001 235.883106,50.3265385 229.751304,50.3265385 L229.751304,50.3265385 Z M229.751304,15.9761538 C220.164062,16.0897491 211.64071,22.1123377 208.323296,31.1171555 C205.005881,40.1219732 207.582215,50.2420173 214.800291,56.5593054 C222.018368,62.8765935 232.381635,64.0813384 240.853913,59.5880769 L240.853913,62.3996154 C240.844814,68.5338465 235.879333,73.5043535 229.751304,73.5134615 C226.411662,73.5134615 223.704348,76.2235164 223.704348,79.5665385 C223.704348,82.9095605 226.411662,85.6196154 229.751304,85.6196154 C242.506087,85.5749615 252.83713,75.2334615 252.881739,62.4657692 L252.881739,39.3119231 C252.83713,26.5442308 242.506087,16.2027308 229.751304,16.1580769 L229.751304,15.9761538 L229.751304,15.9761538 Z M115.453913,50.3265385 C109.322112,50.3356724 104.343907,45.3672385 104.334783,39.2292308 C104.325658,33.091223 109.289068,28.1079801 115.42087,28.0988462 C121.552671,28.0897122 126.530875,33.0581461 126.54,39.1961538 C126.549125,45.3341616 121.585715,50.3174045 115.453913,50.3265385 Z M115.453913,15.9761538 C102.69913,16.0208077 92.368087,26.3623077 92.3234783,39.13 L92.3234783,72.2069231 C92.3234782,74.3694792 93.4760216,76.3677636 95.3469564,77.4490417 C97.2178913,78.5303198 99.5229782,78.5303198 101.393913,77.4490417 C103.264848,76.3677636 104.417391,74.3694792 104.417391,72.2069231 L104.417391,59.5384615 C107.815526,61.4015179 111.629046,62.3743524 115.503478,62.3665385 C128.319391,62.3665385 138.708261,51.9671538 138.708261,39.1382692 C138.708261,26.3093846 128.319391,15.91 115.503478,15.91 L115.453913,15.9761538 L115.453913,15.9761538 Z M180.516522,15.9761538 C167.761739,16.0208077 157.430696,26.3623077 157.386087,39.13 L157.386087,56.2969231 C157.386087,59.6399452 160.093402,62.35 163.433043,62.35 C166.772685,62.35 169.48,59.6399452 169.48,56.2969231 L169.48,39.2126923 C169.48,33.0838185 174.44341,28.1153846 180.566087,28.1153846 C186.688764,28.1153846 191.652174,33.0838185 191.652174,39.2126923 L191.652174,56.3796154 C191.535345,58.6146599 192.66008,60.731838 194.5766,61.8844927 C196.49312,63.0371473 198.888619,63.0371473 200.805139,61.8844927 C202.721659,60.731838 203.846394,58.6146599 203.729565,56.3796154 L203.729565,39.2126923 C203.684957,26.445 193.353913,16.1035 180.59913,16.0588462 L180.516522,15.9761538 Z M328.253913,50.1280769 C322.122112,50.1372109 317.143907,45.168777 317.134783,39.0307692 C317.125658,32.8927615 322.089068,27.9095186 328.22087,27.9003846 C334.352671,27.8912507 339.330875,32.8596846 339.34,38.9976923 C339.349125,45.1357001 334.385715,50.118943 328.253913,50.1280769 L328.253913,50.1280769 Z M328.253913,15.7776923 C315.479304,15.7776923 305.123478,26.144 305.123478,38.9315385 C305.123478,51.7190769 315.479304,62.0853846 328.253913,62.0853846 C341.028522,62.0853846 351.384348,51.7190769 351.384348,38.9315385 C351.339739,26.1638462 341.008696,15.8223462 328.253913,15.7776923 L328.253913,15.7776923 Z M279.002609,50.3265385 C272.870807,50.3265385 267.9,45.3507001 267.9,39.2126923 C267.9,33.0746846 272.870807,28.0988462 279.002609,28.0988462 C285.13441,28.0988462 290.105217,33.0746846 290.105217,39.2126923 C290.096119,45.3469234 285.130637,50.3174305 279.002609,50.3265385 L279.002609,50.3265385 Z M296.135652,0.0992307692 C292.79601,0.0992307692 290.088696,2.80928562 290.088696,6.15230769 L290.088696,18.8207692 C280.944555,13.8414911 269.604144,15.5900328 262.380707,23.0929756 C255.15727,30.5959184 253.830557,42.0046453 259.139154,50.9678808 C264.447751,59.9311164 275.083696,64.2404486 285.125924,61.4968582 C295.168152,58.7532678 302.142402,49.6327359 302.166087,39.2126923 L302.166087,6.13576923 C302.166087,2.79274716 299.458772,0.0826923077 296.11913,0.0826923077 L296.135652,0.0992307692 L296.135652,0.0992307692 Z M147.555652,15.9761538 C144.21601,15.9761538 141.508696,18.6862087 141.508696,22.0292308 L141.508696,56.3630769 C141.508696,59.706099 144.21601,62.4161538 147.555652,62.4161538 C150.895294,62.4161538 153.602609,59.706099 153.602609,56.3630769 L153.602609,22.0457692 C153.602609,18.7027472 150.895294,15.9926923 147.555652,15.9926923 L147.555652,15.9761538 Z M141.508696,6.15230769 C141.508696,9.49532977 144.21601,12.2053846 147.555652,12.2053846 C150.895294,12.2053846 153.602609,9.49532977 153.602609,6.15230769 C153.602609,2.80928562 150.895294,0.0992307692 147.555652,0.0992307692 C144.21601,0.0992307692 141.508696,2.80928562 141.508696,6.15230769 L141.508696,6.15230769 Z M386.046957,62.2342308 C387.653576,62.2342368 389.194152,61.594234 390.328652,60.4554824 C391.463153,59.3167308 392.098303,57.7728548 392.093913,56.1646154 L392.093913,30.4307692 C392.093913,29.0332692 393.225652,27.9003846 394.621739,27.9003846 C400.747087,27.909509 405.707833,32.8826759 405.707826,39.0142308 L405.707826,56.0984615 C405.707826,59.4414836 408.415141,62.1515385 411.754783,62.1515385 C415.094424,62.1515385 417.801739,59.4414836 417.801739,56.0984615 L417.801739,39.0142308 C417.75713,26.2465385 407.426087,15.9050385 394.671304,15.8603846 C391.733212,15.8526494 388.821399,16.4142602 386.096522,17.5142308 C383.371526,16.4146618 380.459792,15.8530662 377.521739,15.8603846 C364.770261,15.9149615 354.445826,26.2498462 354.391304,39.0142308 L354.391304,56.0984615 C354.391304,59.4414836 357.098619,62.1515385 360.438261,62.1515385 C363.777903,62.1515385 366.485217,59.4414836 366.485217,56.0984615 L366.485217,39.0142308 C366.485211,32.8826759 371.445956,27.909509 377.571304,27.9003846 C378.967391,27.9003846 380.09913,29.0332692 380.09913,30.4307692 L380.09913,56.0984615 C380.094741,57.7067009 380.729891,59.2505769 381.864391,60.3893285 C382.998892,61.5280801 384.539468,62.1680829 386.146087,62.1680769 L386.046957,62.2342308 Z" id="Shape"></path>
            </g>
        </g>
    </g>
</svg>