<?xml version="1.0" encoding="UTF-8" standalone="no"?><!DOCTYPE svg PUBLIC "-//W3C//DTD SVG 1.1//EN" "http://www.w3.org/Graphics/SVG/1.1/DTD/svg11.dtd"><svg width="56" height="53" viewBox="0 0 56 52" version="1.1" xmlns="http://www.w3.org/2000/svg" xmlns:xlink="http://www.w3.org/1999/xlink" xml:space="preserve" style="fill-rule:evenodd;clip-rule:evenodd;stroke-linejoin:round;stroke-miterlimit:1.41421;"><clipPath id="_clip1"><path d="M26.19,16.864c-4.411,0.804 -8.054,4.492 -8.872,8.89c-0.366,1.983 -0.172,4.029 0.559,5.909c0.798,1.99 2.183,3.691 3.969,4.877c0.209,0.148 0.459,0.228 0.715,0.228c0.454,0 0.872,-0.25 1.089,-0.648l1.383,-2.569c0.276,-0.514 0.148,-1.158 -0.305,-1.527c-1.912,-1.551 -2.472,-4.26 -1.331,-6.442c1.276,-2.381 4.191,-3.41 6.679,-2.357c1.896,0.823 3.129,2.702 3.129,4.769c0,0.767 -0.17,1.525 -0.497,2.219c-0.33,0.703 -0.816,1.323 -1.421,1.811c-0.456,0.369 -0.587,1.016 -0.31,1.533l2.1,3.928c0.214,0.4 0.633,0.651 1.087,0.651c0.262,0 0.516,-0.083 0.727,-0.236c0.397,-0.29 0.776,-0.605 1.134,-0.943c3.321,-3.135 4.617,-8.171 3.119,-12.501c-1.562,-4.522 -6.094,-7.685 -10.865,-7.748l-0.155,0c-0.649,-0.001 -1.297,0.057 -1.936,0.173m1.81,-6.675c-0.824,-0.006 -1.583,-0.461 -1.976,-1.185c-1.189,0.149 -2.363,0.409 -3.504,0.776c-2.649,0.851 -5.09,2.248 -7.166,4.101c-3.765,3.386 -5.8,8.379 -5.99,13.397c-0.172,4.555 1.508,9.111 4.483,12.551l0.275,0.31c0.363,0.401 0.744,0.786 1.143,1.154c0.915,0.832 1.911,1.57 2.974,2.202c0.19,0.114 0.408,0.174 0.63,0.174c0.455,0 0.874,-0.252 1.086,-0.654l0.838,-1.566c0.296,-0.553 0.124,-1.248 -0.395,-1.599c-1.66,-1.088 -3.069,-2.519 -4.131,-4.196c-1.527,-2.456 -2.261,-5.323 -2.104,-8.21c0.293,-4.86 3.14,-9.217 7.474,-11.437c4.927,-2.519 11.195,-1.675 15.212,2.153c4.443,4.228 5.431,11.216 2.11,16.416c-1.021,1.597 -2.386,2.947 -3.995,3.951c-0.553,0.337 -0.75,1.056 -0.447,1.628l2.253,4.21c0.213,0.401 0.631,0.652 1.085,0.652c0.233,0 0.461,-0.066 0.657,-0.19c5.63,-3.605 9.049,-9.843 9.058,-16.528c-1.033,-0.227 -1.775,-1.15 -1.775,-2.207c0,-0.887 0.522,-1.695 1.331,-2.06c-0.194,-0.88 -0.451,-1.745 -0.769,-2.588c-1.734,-4.58 -5.263,-8.387 -9.585,-10.637c-2.099,-1.075 -4.39,-1.723 -6.741,-1.906c-0.379,0.774 -1.167,1.268 -2.029,1.27m-24.642,4.522c-7.059,13.119 -2.475,29.693 10.323,37.319c0.191,0.114 0.409,0.174 0.632,0.174c0.45,0 0.866,-0.246 1.083,-0.64l1.701,-3.181c0.302,-0.568 0.11,-1.282 -0.437,-1.622c-1.158,-0.706 -2.246,-1.521 -3.25,-2.434c-5.445,-4.982 -7.996,-12.408 -6.762,-19.684c1.367,-8.1 7.46,-14.896 15.39,-17.076c1.292,-0.353 2.615,-0.582 3.951,-0.685c0.385,-0.754 1.163,-1.23 2.009,-1.23c0.872,0 1.669,0.505 2.041,1.293c4.7,0.512 9.206,2.551 12.584,5.998c2.932,3.005 4.924,6.801 5.73,10.921c1.133,0.139 1.995,1.113 1.995,2.255c0,0.993 -0.652,1.877 -1.6,2.17c-0.048,3.214 -0.885,6.367 -2.436,9.181c-1.801,3.285 -4.44,6.035 -7.648,7.97c-0.562,0.332 -0.765,1.057 -0.458,1.633l2.4,4.491c0.215,0.4 0.634,0.65 1.088,0.65c0.223,0 0.442,-0.06 0.633,-0.174c8.47,-5.042 13.676,-14.199 13.676,-24.056c0,-11.223 -6.749,-21.408 -17.084,-25.782c-3.424,-1.455 -7.107,-2.204 -10.828,-2.201c-10.044,0 -19.756,5.415 -24.733,14.71"/></clipPath><g clip-path="url(#_clip1)"><rect x="-3.852" y="0" width="63.924" height="52.393" style="fill:url(#_Linear2);"/></g><defs><linearGradient id="_Linear2" x1="0" y1="0" x2="1" y2="0" gradientUnits="userSpaceOnUse" gradientTransform="matrix(3.173e-15,51.8191,-51.8191,3.173e-15,28.1231,0.443914)"><stop offset="0%" style="stop-color:#ee7e22;stop-opacity:1"/><stop offset="0%" style="stop-color:#ee7e22;stop-opacity:1"/><stop offset="61%" style="stop-color:#e94f25;stop-opacity:1"/><stop offset="100%" style="stop-color:#e63626;stop-opacity:1"/></linearGradient></defs></svg>